<svg width="24" height="24" viewBox="0 0 24 24" fill="none" xmlns="http://www.w3.org/2000/svg">
<path d="M4.5 15.75C4.5 15.5511 4.57902 15.3603 4.71967 15.2197C4.86032 15.079 5.05109 15 5.25 15H18.75C18.9489 15 19.1397 15.079 19.2803 15.2197C19.421 15.3603 19.5 15.5511 19.5 15.75C19.5 15.9489 19.421 16.1397 19.2803 16.2803C19.1397 16.421 18.9489 16.5 18.75 16.5H5.25C5.05109 16.5 4.86032 16.421 4.71967 16.2803C4.57902 16.1397 4.5 15.9489 4.5 15.75ZM4.875 10.5C5.02274 10.5 5.16903 10.4709 5.30552 10.4144C5.44201 10.3578 5.56603 10.275 5.6705 10.1705C5.77496 10.066 5.85783 9.94201 5.91436 9.80552C5.9709 9.66903 6 9.52274 6 9.375C6 9.22726 5.9709 9.08097 5.91436 8.94448C5.85783 8.80799 5.77496 8.68397 5.6705 8.5795C5.56603 8.47504 5.44201 8.39217 5.30552 8.33564C5.16903 8.2791 5.02274 8.25 4.875 8.25C4.57663 8.25 4.29048 8.36853 4.0795 8.5795C3.86853 8.79048 3.75 9.07663 3.75 9.375C3.75 9.67337 3.86853 9.95952 4.0795 10.1705C4.29048 10.3815 4.57663 10.5 4.875 10.5ZM15 9.375C15 9.67337 14.8815 9.95952 14.6705 10.1705C14.4595 10.3815 14.1734 10.5 13.875 10.5C13.5766 10.5 13.2905 10.3815 13.0795 10.1705C12.8685 9.95952 12.75 9.67337 12.75 9.375C12.75 9.07663 12.8685 8.79048 13.0795 8.5795C13.2905 8.36853 13.5766 8.25 13.875 8.25C14.1734 8.25 14.4595 8.36853 14.6705 8.5795C14.8815 8.79048 15 9.07663 15 9.375ZM9.375 10.5C9.52274 10.5 9.66903 10.4709 9.80552 10.4144C9.94201 10.3578 10.066 10.275 10.1705 10.1705C10.275 10.066 10.3578 9.94201 10.4144 9.80552C10.4709 9.66903 10.5 9.52274 10.5 9.375C10.5 9.22726 10.4709 9.08097 10.4144 8.94448C10.3578 8.80799 10.275 8.68397 10.1705 8.5795C10.066 8.47504 9.94201 8.39217 9.80552 8.33564C9.66903 8.2791 9.52274 8.25 9.375 8.25C9.07663 8.25 8.79048 8.36853 8.5795 8.5795C8.36853 8.79048 8.25 9.07663 8.25 9.375C8.25 9.67337 8.36853 9.95952 8.5795 10.1705C8.79048 10.3815 9.07663 10.5 9.375 10.5ZM19.5 9.375C19.5 9.67337 19.3815 9.95952 19.1705 10.1705C18.9595 10.3815 18.6734 10.5 18.375 10.5C18.0766 10.5 17.7905 10.3815 17.5795 10.1705C17.3685 9.95952 17.25 9.67337 17.25 9.375C17.25 9.07663 17.3685 8.79048 17.5795 8.5795C17.7905 8.36853 18.0766 8.25 18.375 8.25C18.6734 8.25 18.9595 8.36853 19.1705 8.5795C19.3815 8.79048 19.5 9.07663 19.5 9.375ZM7.875 13.5C8.17337 13.5 8.45952 13.3815 8.6705 13.1705C8.88147 12.9595 9 12.6734 9 12.375C9 12.0766 8.88147 11.7905 8.6705 11.5795C8.45952 11.3685 8.17337 11.25 7.875 11.25C7.57663 11.25 7.29048 11.3685 7.0795 11.5795C6.86853 11.7905 6.75 12.0766 6.75 12.375C6.75 12.6734 6.86853 12.9595 7.0795 13.1705C7.29048 13.3815 7.57663 13.5 7.875 13.5ZM13.5 12.375C13.5 12.6734 13.3815 12.9595 13.1705 13.1705C12.9595 13.3815 12.6734 13.5 12.375 13.5C12.0766 13.5 11.7905 13.3815 11.5795 13.1705C11.3685 12.9595 11.25 12.6734 11.25 12.375C11.25 12.0766 11.3685 11.7905 11.5795 11.5795C11.7905 11.3685 12.0766 11.25 12.375 11.25C12.6734 11.25 12.9595 11.3685 13.1705 11.5795C13.3815 11.7905 13.5 12.0766 13.5 12.375ZM16.875 13.5C17.1734 13.5 17.4595 13.3815 17.6705 13.1705C17.8815 12.9595 18 12.6734 18 12.375C18 12.0766 17.8815 11.7905 17.6705 11.5795C17.4595 11.3685 17.1734 11.25 16.875 11.25C16.5766 11.25 16.2905 11.3685 16.0795 11.5795C15.8685 11.7905 15.75 12.0766 15.75 12.375C15.75 12.6734 15.8685 12.9595 16.0795 13.1705C16.2905 13.3815 16.5766 13.5 16.875 13.5ZM1.5 7.125C1.5 5.676 2.676 4.5 4.125 4.5H19.875C21.324 4.5 22.5 5.676 22.5 7.125V16.875C22.5 17.5712 22.2234 18.2389 21.7312 18.7312C21.2389 19.2234 20.5712 19.5 19.875 19.5H4.125C3.42881 19.5 2.76113 19.2234 2.26884 18.7312C1.77656 18.2389 1.5 17.5712 1.5 16.875V7.125ZM4.125 6C3.82663 6 3.54048 6.11853 3.3295 6.3295C3.11853 6.54048 3 6.82663 3 7.125V16.875C3 17.496 3.504 18 4.125 18H19.875C20.1734 18 20.4595 17.8815 20.6705 17.6705C20.8815 17.4595 21 17.1734 21 16.875V7.125C21 6.82663 20.8815 6.54048 20.6705 6.3295C20.4595 6.11853 20.1734 6 19.875 6H4.125Z" fill="black"/>
</svg>
