<svg width="24" height="24" viewBox="0 0 24 24" fill="none" xmlns="http://www.w3.org/2000/svg">
<path fill-rule="evenodd" clip-rule="evenodd" d="M13.5 7.5C13.5 7.89782 13.342 8.27936 13.0607 8.56066C12.7794 8.84196 12.3978 9 12 9C11.6022 9 11.2206 8.84196 10.9393 8.56066C10.658 8.27936 10.5 7.89782 10.5 7.5C10.5 7.10218 10.658 6.72064 10.9393 6.43934C11.2206 6.15804 11.6022 6 12 6C12.3978 6 12.7794 6.15804 13.0607 6.43934C13.342 6.72064 13.5 7.10218 13.5 7.5Z" fill="black"/>
<path fill-rule="evenodd" clip-rule="evenodd" d="M8 14C8 12.9391 8.42143 11.9217 9.17157 11.1716C9.92172 10.4214 10.9391 10 12 10C13.0609 10 14.0783 10.4214 14.8284 11.1716C15.5786 11.9217 16 12.9391 16 14C16 15.0609 15.5786 16.0783 14.8284 16.8284C14.0783 17.5786 13.0609 18 12 18C10.9391 18 9.92172 17.5786 9.17157 16.8284C8.42143 16.0783 8 15.0609 8 14ZM12 16.5C13.3807 16.5 14.5 15.3807 14.5 14C14.5 12.6193 13.3807 11.5 12 11.5C10.6193 11.5 9.5 12.6193 9.5 14C9.5 15.3807 10.6193 16.5 12 16.5Z" fill="black"/>
<path fill-rule="evenodd" clip-rule="evenodd" d="M4.58579 2.58579C4.21071 2.96086 4 3.46957 4 4V20C4 20.5304 4.21071 21.0391 4.58579 21.4142C4.96086 21.7893 5.46957 22 6 22H18C18.5304 22 19.0391 21.7893 19.4142 21.4142C19.7893 21.0391 20 20.5304 20 20V4C20 3.46957 19.7893 2.96086 19.4142 2.58579C19.0391 2.21071 18.5304 2 18 2H6C5.46957 2 4.96086 2.21071 4.58579 2.58579ZM5.5 3.5H18.5V20.5H5.5V3.5Z" fill="black"/>
</svg>
