<svg width="24" height="24" viewBox="0 0 24 24" fill="none" xmlns="http://www.w3.org/2000/svg">
<path d="M10.269 6C8.66699 6 8.09549 6.1095 7.50899 6.4245C7.03799 6.6765 6.67649 7.038 6.42449 7.509C6.10949 8.0955 5.99999 8.667 5.99999 10.269V16.731C5.99999 18.333 6.10949 18.9045 6.42449 19.491C6.67649 19.962 7.03799 20.3235 7.50899 20.5755C8.09549 20.8905 8.66699 21 10.269 21H13.731C15.333 21 15.9045 20.8905 16.491 20.5755C16.962 20.3235 17.3235 19.962 17.5755 19.491C17.8905 18.9045 18 18.333 18 16.731V10.269C18 8.667 17.8905 8.0955 17.5755 7.509C17.3318 7.04626 16.9537 6.66817 16.491 6.4245C15.9045 6.1095 15.333 6 13.731 6H10.269ZM13.731 4.5C15.7365 4.5 16.464 4.71 17.1975 5.1C17.9325 5.493 18.507 6.069 18.8985 6.8025C19.2915 7.536 19.5 8.2635 19.5 10.2675V16.7325C19.5 18.7365 19.29 19.464 18.9 20.1975C18.516 20.9224 17.9228 21.5151 17.1975 21.8985C16.464 22.2915 15.7365 22.5 13.7325 22.5H10.2675C8.26349 22.5 7.53599 22.29 6.80249 21.9C6.07677 21.5158 5.48353 20.9221 5.1 20.196C4.707 19.4625 4.4985 18.735 4.4985 16.731V10.266C4.4985 8.262 4.7085 7.5345 5.0985 6.801C5.48331 6.07562 6.0776 5.48289 6.80399 5.1C7.53599 4.7085 8.26349 4.5 10.2675 4.5L12.75 4.5L13.731 4.5Z" fill="black"/>
<path d="M12 7.5C12.5 7.5 12.75 7.75 12.75 8.25V11.25C12.75 11.75 12.5 12 12 12C11.5 12 11.25 11.75 11.25 11.25V8.25C11.25 7.75 11.5 7.5 12 7.5ZM12.75 4.5H11.25V3.75C11.25 3.55109 11.171 3.36032 11.0303 3.21967C10.8897 3.07902 10.6989 3 10.5 3H8.25C8.05109 3 7.86032 2.92098 7.71967 2.78033C7.57902 2.63968 7.5 2.44891 7.5 2.25C7.5 2.05109 7.57902 1.86032 7.71967 1.71967C7.86032 1.57902 8.05109 1.5 8.25 1.5H10.5C11.0967 1.5 11.669 1.73705 12.091 2.15901C12.5129 2.58097 12.75 3.15326 12.75 3.75V4.5Z" fill="black"/>
</svg>
