<svg width="24" height="24" viewBox="0 0 24 24" fill="none" xmlns="http://www.w3.org/2000/svg">
<path fill-rule="evenodd" clip-rule="evenodd" d="M13.0607 20.5607C12.7794 20.842 12.3978 21 12 21C11.6022 21 11.2206 20.842 10.9393 20.5607C10.658 20.2794 10.5 19.8978 10.5 19.5C10.5 19.1022 10.658 18.7206 10.9393 18.4393C11.2206 18.158 11.6022 18 12 18C12.3978 18 12.7794 18.158 13.0607 18.4393C13.342 18.7206 13.5 19.1022 13.5 19.5C13.5 19.8978 13.342 20.2794 13.0607 20.5607Z" fill="black"/>
<path fill-rule="evenodd" clip-rule="evenodd" d="M5.37868 0.87868C5.94129 0.316071 6.70435 0 7.5 0H16.5C17.2957 0 18.0587 0.316071 18.6213 0.87868C19.1839 1.44129 19.5 2.20435 19.5 3V21C19.5 21.7957 19.1839 22.5587 18.6213 23.1213C18.0587 23.6839 17.2957 24 16.5 24H7.5C6.70435 24 5.94129 23.6839 5.37868 23.1213C4.81607 22.5587 4.5 21.7957 4.5 21V3C4.5 2.20435 4.81607 1.44129 5.37868 0.87868ZM17.5607 1.93934C17.2794 1.65804 16.8978 1.5 16.5 1.5H7.5C7.10218 1.5 6.72064 1.65804 6.43934 1.93934C6.15804 2.22064 6 2.60218 6 3V21C6 21.3978 6.15804 21.7794 6.43934 22.0607C6.72064 22.342 7.10218 22.5 7.5 22.5H16.5C16.8978 22.5 17.2794 22.342 17.5607 22.0607C17.842 21.7794 18 21.3978 18 21V3C18 2.60218 17.842 2.22064 17.5607 1.93934Z" fill="black"/>
</svg>
