<svg width="24" height="24" viewBox="0 0 24 24" fill="none" xmlns="http://www.w3.org/2000/svg">
<path fill-rule="evenodd" clip-rule="evenodd" d="M16.497 5.03C16.497 5.078 16.496 5.126 16.493 5.173C17.0797 5.37896 17.5879 5.76207 17.9475 6.2694C18.307 6.77672 18.5001 7.3832 18.5 8.005V10.5L19 10.5V13.005H18.5V16.005C18.5 16.6263 18.307 17.2322 17.9479 17.7391C17.5888 18.246 17.0811 18.6289 16.495 18.835C16.5181 19.2426 16.4578 19.6507 16.3178 20.0341C16.1777 20.4176 15.9609 20.7685 15.6805 21.0653C15.4001 21.362 15.0621 21.5984 14.6872 21.76C14.3122 21.9216 13.9083 22.005 13.5 22.005H9.5C9.09173 22.005 8.68777 21.9216 8.31284 21.76C7.93791 21.5984 7.5999 21.362 7.31952 21.0653C7.03914 20.7685 6.82228 20.4176 6.68223 20.0341C6.54217 19.6507 6.48186 19.2426 6.505 18.835C5.91899 18.6288 5.41141 18.2459 5.05228 17.739C4.69315 17.2321 4.50019 16.6262 4.5 16.005V8.005C4.49989 7.38399 4.69251 6.77824 5.05128 6.27135C5.41005 5.76445 5.91728 5.38138 6.503 5.175C6.47837 4.76531 6.53806 4.35493 6.67839 3.96924C6.81872 3.58355 7.0367 3.23075 7.31883 2.93268C7.60097 2.6346 7.94127 2.39759 8.31868 2.23631C8.69609 2.07502 9.10258 1.99289 9.513 1.995L13.513 2.015C14.3085 2.01923 15.0697 2.33923 15.6293 2.90463C16.1889 3.47002 16.501 4.23452 16.497 5.03ZM8 5H15C14.9974 4.73738 14.6862 4.18524 14.5 4C14.3138 3.81476 13.7626 3.5013 13.5 3.5H9.5C9.23496 3.49894 8.68826 3.81343 8.5 4C8.31174 4.18657 8.00132 4.73496 8 5ZM15.5 6.5H7.5C7.23478 6.5 6.68754 6.81246 6.5 7C6.31246 7.18754 6 7.73978 6 8.005V16C6 16.265 6.31268 16.8125 6.5 17C6.68732 17.1875 7.23496 17.4997 7.5 17.5H15.5C15.765 17.4997 16.3127 17.1875 16.5 17C16.6873 16.8125 17 16.27 17 16.005V8.005C17.0001 7.77534 16.6448 7.17828 16.5 7C16.3552 6.82172 15.7248 6.54708 15.5 6.5ZM8 19C8 19.2652 8.31246 19.8125 8.5 20C8.68754 20.1875 9.23478 20.5 9.5 20.5H13.5C13.7652 20.5 14.3125 20.2217 14.5 20.0341C14.6875 19.8466 15 19.2652 15 19H8Z" fill="black"/>
</svg>
